<svg xmlns="http://www.w3.org/2000/svg" xmlns:xlink="http://www.w3.org/1999/xlink" width="2248.69541" height="837.11409" viewBox="0 0 2248.69541 837.11409">
  <defs>
    <style>
      .cls-1 {
        fill: url(#linear-gradient);
      }

      .cls-2 {
        fill: url(#linear-gradient-2);
      }

      .cls-3 {
        fill: url(#linear-gradient-3);
      }

      .cls-4 {
        fill: url(#linear-gradient-4);
      }

      .cls-5 {
        fill: url(#linear-gradient-5);
      }

      .cls-6 {
        fill: url(#linear-gradient-6);
      }

      .cls-7 {
        fill: url(#linear-gradient-7);
      }

      .cls-8 {
        fill: url(#linear-gradient-8);
      }

      .cls-9 {
        fill: url(#linear-gradient-9);
      }

      .cls-10 {
        fill: none;
        clip-rule: evenodd;
      }

      .cls-11 {
        isolation: isolate;
      }

      .cls-12 {
        fill: #2d333d;
      }

      .cls-13 {
        clip-path: url(#clip-path);
      }

      .cls-14 {
        fill: url(#linear-gradient-10);
      }

      .cls-15 {
        mask: url(#mask);
      }

      .cls-16 {
        fill: #050507;
      }

      .cls-16, .cls-22, .cls-26, .cls-30 {
        fill-rule: evenodd;
      }

      .cls-17 {
        clip-path: url(#clip-path-2);
      }

      .cls-18 {
        fill: url(#linear-gradient-11);
      }

      .cls-19 {
        mask: url(#mask-2);
      }

      .cls-20 {
        mask: url(#mask-3);
      }

      .cls-21 {
        mask: url(#mask-4);
      }

      .cls-22 {
        fill: #414d54;
      }

      .cls-23 {
        clip-path: url(#clip-path-3);
      }

      .cls-24 {
        fill: url(#linear-gradient-12);
      }

      .cls-25 {
        mask: url(#mask-5);
      }

      .cls-26 {
        fill: #182320;
      }

      .cls-27 {
        clip-path: url(#clip-path-4);
      }

      .cls-28 {
        fill: url(#linear-gradient-13);
      }

      .cls-29 {
        mask: url(#mask-6);
      }

      .cls-30 {
        fill: #14131d;
      }

      .cls-31 {
        mask: url(#mask-7);
      }

      .cls-32 {
        mask: url(#mask-8);
      }

      .cls-33 {
        mask: url(#mask-9);
      }
    </style>
    <linearGradient id="linear-gradient" x1="360.36165" y1="636.81209" x2="-49.74116" y2="400.04768" gradientTransform="translate(218.81479 -332.1218)" gradientUnits="userSpaceOnUse">
      <stop offset="0" stop-color="#fff"/>
      <stop offset="1"/>
    </linearGradient>
    <linearGradient id="linear-gradient-2" x1="370.16255" y1="473.95642" x2="-176.62917" y2="789.61749" gradientTransform="translate(188.2485 -253.4428)" xlink:href="#linear-gradient"/>
    <linearGradient id="linear-gradient-3" x1="128.40259" y1="1267.10792" x2="128.40259" y2="650.65811" gradientTransform="translate(190.3859 -170.1624)" xlink:href="#linear-gradient"/>
    <linearGradient id="linear-gradient-4" x1="-214.48878" y1="577.49106" x2="192.27336" y2="812.34097" gradientTransform="translate(223.30089 -170.178)" xlink:href="#linear-gradient"/>
    <linearGradient id="linear-gradient-5" x1="-403.10257" y1="-396.84208" x2="285.52355" y2="795.87892" gradientTransform="translate(178.759 -302.0794)" xlink:href="#linear-gradient"/>
    <linearGradient id="linear-gradient-6" x1="112.0338" y1="99.99133" x2="112.0338" y2="1113.32729" gradientTransform="translate(224.32369 -170.178)" xlink:href="#linear-gradient"/>
    <linearGradient id="linear-gradient-7" x1="649.45559" y1="550.80376" x2="108.55964" y2="866.01348" gradientTransform="translate(224.32369 -192.829)" xlink:href="#linear-gradient"/>
    <linearGradient id="linear-gradient-8" x1="-240.96875" y1="359.18254" x2="8.22547" y2="649.38384" gradientTransform="translate(195.3113 -269.4855)" xlink:href="#linear-gradient"/>
    <linearGradient id="linear-gradient-9" x1="495.57469" y1="457.27512" x2="35.22713" y2="723.06656" gradientTransform="translate(196.058 -269.2003)" xlink:href="#linear-gradient"/>
    <clipPath id="clip-path">
      <path class="cls-10" d="M229.16278,114.6904a155.06468,155.06468,0,0,1,11.16077-52.43634L229.45343,45.17891C213.68771,20.37814,214.8811,0,214.8811,0l34.61071,44.05389L285.88148,90.3718l91.78009,116.82264L269.77956,169.406Z"/>
    </clipPath>
    <linearGradient id="linear-gradient-10" x1="453.79178" y1="261.71436" x2="124.57477" y2="-67.50264" gradientUnits="userSpaceOnUse">
      <stop offset="0" stop-color="#050507"/>
      <stop offset="0.46" stop-color="#3b4250"/>
      <stop offset="1" stop-color="#3f4d52"/>
    </linearGradient>
    <mask id="mask" x="229.16278" y="83.77201" width="148.49878" height="123.42244" maskUnits="userSpaceOnUse">
      <rect class="cls-1" x="229.16278" y="83.77249" width="148.49878" height="123.42195"/>
    </mask>
    <clipPath id="clip-path-2">
      <path class="cls-10" d="M0,528.3967c0,170.515,138.231,308.71739,308.71749,308.71739A307.86462,307.86462,0,0,0,422.865,815.32317C297.52672,781.73943,211.11157,614.95673,267.39618,517.1665c35.04306-60.87636,100.73549-57.68533,128.07285-33.77187,17.87418,15.63579,12.1743,37.18908,1.71574,55.90976,67.07276-31.09513,117.98486-106.40156,117.98486-106.40156L454.69578,256.333A307.2777,307.2777,0,0,0,308.71749,219.6794C140.821,219.6794,0,355.30683,0,528.3967"/>
    </clipPath>
    <linearGradient id="linear-gradient-11" x1="257.58481" y1="-216.7963" x2="257.58481" y2="1355.4641" xlink:href="#linear-gradient-10"/>
    <mask id="mask-2" x="114.38072" y="219.6794" width="400.78823" height="282.96914" maskUnits="userSpaceOnUse">
      <rect class="cls-2" x="114.38072" y="219.67969" width="400.78785" height="282.96885"/>
    </mask>
    <mask id="mask-3" x="122.40706" y="301.15504" width="392.76286" height="514.22669" maskUnits="userSpaceOnUse">
      <rect class="cls-3" x="122.40706" y="301.15504" width="392.76286" height="514.22669"/>
    </mask>
    <mask id="mask-4" x="246.00895" y="428.60425" width="269.15999" height="386.71893" maskUnits="userSpaceOnUse">
      <rect class="cls-4" x="246.00895" y="428.60425" width="269.15999" height="386.71893"/>
    </mask>
    <clipPath id="clip-path-3">
      <path class="cls-10" d="M316.30073,358.27451c-46.78968-.5174-96.24124,12.96924-141.63835,52.88013A270.97674,270.97674,0,0,0,143.70679,443.477s-21.69817-94.91034,55.61164-203.854c-21.29226-17.23247-63.001-73.69761-60.24621-151.99435l-21.435-16.50221C86.52925,47.143,78.74588,20.99559,78.74588,20.99559l63.5569,39.58935,66.8227,41.62468L454.19334,254.86607l60.97629,178.03676s-92.56-73.45523-198.8689-74.62832"/>
    </clipPath>
    <linearGradient id="linear-gradient-12" x1="457.51442" y1="831.51313" x2="263.52188" y2="107.43706" xlink:href="#linear-gradient-10"/>
    <mask id="mask-5" x="78.74588" y="20.99559" width="397.75743" height="299.01357" maskUnits="userSpaceOnUse">
      <rect class="cls-5" x="78.74588" y="20.99559" width="397.75743" height="299.01357"/>
    </mask>
    <clipPath id="clip-path-4">
      <path class="cls-10" d="M616.07331,499.22192c-.98878,160.0576-324.08584,223.0899-360.32985,45.35778C226.69415,643.40338,308.6067,784.70829,422.865,815.32317,536.8614,769.93353,617.43372,658.57391,617.43372,528.3967q0-14.7601-1.36041-29.17478"/>
    </clipPath>
    <linearGradient id="linear-gradient-13" x1="254.76523" y1="702.09447" x2="813.87664" y2="552.29984" xlink:href="#linear-gradient-10"/>
    <mask id="mask-6" x="249.84975" y="544.5797" width="173.01548" height="270.74347" maskUnits="userSpaceOnUse">
      <rect class="cls-6" x="249.84975" y="544.5797" width="173.01548" height="270.74347"/>
    </mask>
    <mask id="mask-7" x="249.84975" y="499.22192" width="366.63588" height="231.04264" maskUnits="userSpaceOnUse">
      <rect class="cls-7" x="249.84975" y="499.22201" width="366.63588" height="231.04254"/>
    </mask>
    <mask id="mask-8" x="140.90284" y="239.69029" width="58.54669" height="202.71495" maskUnits="userSpaceOnUse">
      <rect class="cls-8" x="140.90284" y="239.69029" width="58.54631" height="202.71495"/>
    </mask>
    <mask id="mask-9" x="143.70679" y="350.91509" width="371.46215" height="92.56117" maskUnits="userSpaceOnUse">
      <rect class="cls-9" x="143.70679" y="350.91522" width="371.46196" height="92.56105"/>
    </mask>
  </defs>
  <g id="Ebene_2" data-name="Ebene 2">
    <g id="Layer_2" data-name="Layer 2">
      <g>
        <g id="LYNX" class="cls-11">
          <g class="cls-11">
            <path class="cls-12" d="M884.9708,299.48781h71.06152V552.95509h143.9336v63.36719H884.9708Z"/>
            <path class="cls-12" d="M1245.24912,490.49318l-118.13379-186.479v-4.52636h82.8291L1280.55381,418.98h1.81054l68.79883-119.49218h82.8291v4.52636L1316.76377,489.5879V616.32228h-71.51465Z"/>
            <path class="cls-12" d="M1551.66709,299.48781h83.73535L1752.17783,506.335h1.81055V299.48781h70.60937V616.32228h-84.1875L1623.63389,410.83253h-1.81055V616.32228h-70.15625Z"/>
            <path class="cls-12" d="M1944.5333,611.79591l99.124-153.89111v-1.80957l-95.0498-152.08106v-4.52636h85.998l64.27148,109.9873h1.81055l64.27246-109.9873h83.73535v4.52636L2156.8126,456.54738v1.81054l91.88281,153.438v4.52637H2161.339L2097.97178,506.335h-1.80957l-63.82032,109.98731H1944.5333Z"/>
          </g>
        </g>
        <g>
          <g class="cls-13">
            <rect class="cls-14" x="213.68771" width="163.97386" height="207.19444"/>
          </g>
          <g class="cls-15">
            <path class="cls-16" d="M229.16278,114.6904A155.36808,155.36808,0,0,1,233.41854,83.772l92.59008,57.67474,51.65295,65.74769L269.77956,169.406Z"/>
          </g>
          <g class="cls-17">
            <rect class="cls-18" y="219.6794" width="515.16963" height="617.43469"/>
          </g>
          <g class="cls-19">
            <path class="cls-16" d="M515.169,432.90283,454.69578,256.333a308.73178,308.73178,0,0,0-255.57109-16.52026c-77.86751,70.344-101.63783,159.90436-73.10514,262.83579,88.11836-106.41545,190.30778-169.25693,389.1494-69.74571"/>
          </g>
          <g class="cls-20">
            <path class="cls-16" d="M422.865,815.32317C297.52672,781.73943,211.11157,614.95673,267.39618,517.1665c35.04306-60.87636,100.73549-57.68533,128.07285-33.77187,17.87418,15.63579,12.1743,37.18908,1.71574,55.90976,67.07276-31.09513,117.98486-106.40156,117.98486-106.40156l-45.12229-131.7473L316.46668,358.27568c-77.73457-1.32449-149.17243,26.92765-172.98033,84.12956C67.599,624.74009,204.87915,819.21622,422.865,815.32317"/>
          </g>
          <g class="cls-21">
            <path class="cls-22" d="M513.27617,435.6054c1.24117-1.73935,1.89278-2.70257,1.89278-2.70257l-1.47248-4.29829-6.67525,3.17511c-.71425,1.01684,1.56366,2.30908,6.25495,3.82575M422.86611,815.32317C308.60562,784.70829,226.71444,643.40979,255.7656,544.585l-.02214-.00525c-14.91747,28.87889-11.38,85.3515,1.76041,120.12983A277.69344,277.69344,0,0,0,293.96074,731.248C328.2842,777.65534,365.39783,806.02314,422.86611,815.32317Z"/>
          </g>
          <g class="cls-23">
            <rect class="cls-24" x="78.74588" y="20.99559" width="436.42374" height="422.48136"/>
          </g>
          <g class="cls-25">
            <path class="cls-26" d="M199.31843,239.623c-21.29226-17.23247-63.001-73.69761-60.24621-151.99435l-21.435-16.50221C86.52925,47.143,78.74588,20.99559,78.74588,20.99559l63.5569,39.58935,66.8227,41.62468L454.19334,254.86607l22.31,65.14309Z"/>
          </g>
          <g class="cls-27">
            <rect class="cls-28" x="226.69415" y="499.22192" width="390.73957" height="316.10126"/>
          </g>
          <g class="cls-29">
            <path class="cls-30" d="M293.7002,612.85945c-18.49957-16.79694-32.051-39.32424-37.95674-68.27975C226.69415,643.40338,308.6067,784.70829,422.865,815.32317c-79.34815-30.2987-132.704-124.27555-129.16475-202.46372"/>
          </g>
          <g class="cls-31">
            <path class="cls-16" d="M616.07214,499.22192c-.98761,160.0576-324.08467,223.0899-360.32751,45.35778-14.99933,51.02164-.41729,113.36941,32.92284,165.95694,115.05834,63.69547,338.70624-32.14887,327.40467-211.31472"/>
          </g>
          <g class="cls-32">
            <path class="cls-26" d="M143.59492,442.14547c-2.40668-30.9352,7.09166-77.07976,12.863-99.99871,9.16942-36.4058,28.53715-80.7042,42.9916-102.45647l-.78786.86331c-71.78,101.81583-57.25415,191.155-55.17415,201.85164.035-.0874.07137-.17237.1074-.25977"/>
          </g>
          <g class="cls-33">
            <path class="cls-26" d="M205.06987,380.63139c-25.37564,16.47579-51.72121,42.34756-61.36308,62.84488a271.00484,271.00484,0,0,1,30.95442-32.32047c45.39828-39.91205,94.84984-53.39753,141.63952-52.88129C422.60964,359.4476,515.169,432.90283,515.169,432.90283c-16.91036-18.76653-58.8893-46.39046-89.963-58.79462-29.18876-11.65156-60.01995-19.81793-91.197-22.35794q-8.79948-.71551-17.62761-.82058c-33.62621-.37058-64.97441,6.31963-93.73841,19.8a148.11755,148.11755,0,0,0-17.57314,9.90174"/>
          </g>
        </g>
      </g>
    </g>
  </g>
</svg>
